<svg width="24" height="28" viewBox="0 0 24 28" fill="none" xmlns="http://www.w3.org/2000/svg">
<path fill-rule="evenodd" clip-rule="evenodd" d="M3.75 24.7391L6.5 27L9.25 24.7391L12 27L14.75 24.7391L17.5 27L20.25 24.7391L23 27V1H1V27L3.75 24.7391Z" stroke="#023EA5" stroke-linecap="round" stroke-linejoin="round"/>
<rect x="4" y="8" width="1" height="9" rx="0.5" fill="#023EA5"/>
<rect x="19" y="8" width="1" height="9" rx="0.5" fill="#023EA5"/>
<rect x="6.15991" y="8" width="1" height="7.78846" rx="0.5" fill="#023EA5"/>
<rect x="7.78003" y="8" width="1" height="7.78846" rx="0.5" fill="#023EA5"/>
<rect x="10.6599" y="8" width="1" height="7.78846" rx="0.5" fill="#023EA5"/>
<rect x="12.46" y="8" width="1" height="7.78846" rx="0.5" fill="#023EA5"/>
<rect x="14.26" y="8" width="1" height="7.78846" rx="0.5" fill="#023EA5"/>
<rect x="16.76" y="8" width="1" height="7.78846" rx="0.5" fill="#023EA5"/>
</svg>
